<mxfile host="app.diagrams.net" agent="Mozilla/5.0 (Windows NT 10.0; Win64; x64) AppleWebKit/537.36 (KHTML, like Gecko) Chrome/131.0.0.0 Safari/537.36" version="26.0.1">
  <diagram name="第 1 页" id="UEBIbAkwNvi9270jXavC">
    <mxGraphModel dx="1434" dy="738" grid="1" gridSize="10" guides="1" tooltips="1" connect="1" arrows="1" fold="1" page="1" pageScale="1" pageWidth="827" pageHeight="1169" math="0" shadow="0">
      <root>
        <mxCell id="0" />
        <mxCell id="1" parent="0" />
        <mxCell id="2" value="Start" style="rounded=1;arcSize=40;strokeWidth=2;fontSize=15;" parent="1" vertex="1">
          <mxGeometry x="100" y="473" width="131" height="54" as="geometry" />
        </mxCell>
        <mxCell id="pxDQ8JFiSgeHR5NtUmY3-33" style="edgeStyle=orthogonalEdgeStyle;rounded=0;orthogonalLoop=1;jettySize=auto;html=1;entryX=0;entryY=0.5;entryDx=0;entryDy=0;" edge="1" parent="1" source="3" target="pxDQ8JFiSgeHR5NtUmY3-23">
          <mxGeometry relative="1" as="geometry" />
        </mxCell>
        <mxCell id="pxDQ8JFiSgeHR5NtUmY3-36" value="&lt;font style=&quot;font-size: 14px;&quot;&gt;South&lt;/font&gt;" style="edgeLabel;html=1;align=center;verticalAlign=middle;resizable=0;points=[];" vertex="1" connectable="0" parent="pxDQ8JFiSgeHR5NtUmY3-33">
          <mxGeometry x="-0.0612" y="1" relative="1" as="geometry">
            <mxPoint x="47" y="1" as="offset" />
          </mxGeometry>
        </mxCell>
        <mxCell id="pxDQ8JFiSgeHR5NtUmY3-34" style="edgeStyle=orthogonalEdgeStyle;rounded=0;orthogonalLoop=1;jettySize=auto;html=1;entryX=0;entryY=0.5;entryDx=0;entryDy=0;" edge="1" parent="1" source="3" target="4">
          <mxGeometry relative="1" as="geometry" />
        </mxCell>
        <mxCell id="pxDQ8JFiSgeHR5NtUmY3-35" value="&lt;font style=&quot;font-size: 14px;&quot;&gt;North&lt;/font&gt;" style="edgeLabel;html=1;align=center;verticalAlign=middle;resizable=0;points=[];" vertex="1" connectable="0" parent="pxDQ8JFiSgeHR5NtUmY3-34">
          <mxGeometry x="0.1538" y="2" relative="1" as="geometry">
            <mxPoint x="1" y="13" as="offset" />
          </mxGeometry>
        </mxCell>
        <mxCell id="pxDQ8JFiSgeHR5NtUmY3-47" style="edgeStyle=orthogonalEdgeStyle;rounded=0;orthogonalLoop=1;jettySize=auto;html=1;entryX=0;entryY=0.5;entryDx=0;entryDy=0;" edge="1" parent="1" source="3" target="pxDQ8JFiSgeHR5NtUmY3-37">
          <mxGeometry relative="1" as="geometry" />
        </mxCell>
        <mxCell id="pxDQ8JFiSgeHR5NtUmY3-48" value="&lt;font style=&quot;font-size: 14px;&quot;&gt;Middle&lt;/font&gt;" style="edgeLabel;html=1;align=center;verticalAlign=middle;resizable=0;points=[];" vertex="1" connectable="0" parent="pxDQ8JFiSgeHR5NtUmY3-47">
          <mxGeometry x="0.2177" y="3" relative="1" as="geometry">
            <mxPoint x="-1" as="offset" />
          </mxGeometry>
        </mxCell>
        <mxCell id="3" value="接收 Server 傳送資料" style="rounded=1;arcSize=40;strokeWidth=2" parent="1" vertex="1">
          <mxGeometry x="300" y="473" width="181" height="54" as="geometry" />
        </mxCell>
        <mxCell id="4" value="Run South motor&#xa;升起" style="rounded=1;arcSize=40;strokeWidth=2" parent="1" vertex="1">
          <mxGeometry x="646" y="272" width="114" height="54" as="geometry" />
        </mxCell>
        <mxCell id="pxDQ8JFiSgeHR5NtUmY3-15" style="edgeStyle=orthogonalEdgeStyle;rounded=0;orthogonalLoop=1;jettySize=auto;html=1;entryX=0;entryY=0.5;entryDx=0;entryDy=0;" edge="1" parent="1" source="6" target="7">
          <mxGeometry relative="1" as="geometry">
            <Array as="points">
              <mxPoint x="1050" y="299" />
              <mxPoint x="1050" y="227" />
            </Array>
          </mxGeometry>
        </mxCell>
        <mxCell id="pxDQ8JFiSgeHR5NtUmY3-16" value="Sorth、middle 沒有下降" style="edgeLabel;html=1;align=center;verticalAlign=middle;resizable=0;points=[];" vertex="1" connectable="0" parent="pxDQ8JFiSgeHR5NtUmY3-15">
          <mxGeometry x="0.0759" y="1" relative="1" as="geometry">
            <mxPoint y="10" as="offset" />
          </mxGeometry>
        </mxCell>
        <mxCell id="pxDQ8JFiSgeHR5NtUmY3-21" style="edgeStyle=orthogonalEdgeStyle;rounded=0;orthogonalLoop=1;jettySize=auto;html=1;entryX=0;entryY=0.5;entryDx=0;entryDy=0;" edge="1" parent="1" source="6" target="pxDQ8JFiSgeHR5NtUmY3-19">
          <mxGeometry relative="1" as="geometry">
            <Array as="points">
              <mxPoint x="1050" y="299" />
              <mxPoint x="1050" y="357" />
            </Array>
          </mxGeometry>
        </mxCell>
        <mxCell id="6" value="判斷接收結果" style="rounded=1;arcSize=40;strokeWidth=2" parent="1" vertex="1">
          <mxGeometry x="874" y="272" width="126" height="54" as="geometry" />
        </mxCell>
        <mxCell id="7" value="Run Sorth、middle&#xa;下降" style="rounded=1;arcSize=40;strokeWidth=2;fontSize=14;" parent="1" vertex="1">
          <mxGeometry x="1120" y="200" width="126" height="54" as="geometry" />
        </mxCell>
        <mxCell id="9" value="" style="curved=1;startArrow=none;endArrow=block;exitX=1;exitY=0.5;entryX=0;entryY=0.5;" parent="1" source="2" target="3" edge="1">
          <mxGeometry relative="1" as="geometry">
            <Array as="points" />
          </mxGeometry>
        </mxCell>
        <mxCell id="12" value="執行完成" style="curved=1;startArrow=none;endArrow=block;exitX=1;exitY=0.5;entryX=0;entryY=0.5;" parent="1" source="4" target="6" edge="1">
          <mxGeometry relative="1" as="geometry">
            <Array as="points" />
          </mxGeometry>
        </mxCell>
        <mxCell id="pxDQ8JFiSgeHR5NtUmY3-19" value="End" style="rounded=1;arcSize=40;strokeWidth=2;fontSize=14;" vertex="1" parent="1">
          <mxGeometry x="1120" y="330" width="126" height="54" as="geometry" />
        </mxCell>
        <mxCell id="pxDQ8JFiSgeHR5NtUmY3-22" value="Sorth、middle 已下降" style="edgeLabel;html=1;align=center;verticalAlign=middle;resizable=0;points=[];" vertex="1" connectable="0" parent="1">
          <mxGeometry x="1050" y="330" as="geometry" />
        </mxCell>
        <mxCell id="pxDQ8JFiSgeHR5NtUmY3-23" value="Run Nouth motor&#xa;升起" style="rounded=1;arcSize=40;strokeWidth=2" vertex="1" parent="1">
          <mxGeometry x="646" y="473" width="114" height="54" as="geometry" />
        </mxCell>
        <mxCell id="pxDQ8JFiSgeHR5NtUmY3-24" style="edgeStyle=orthogonalEdgeStyle;rounded=0;orthogonalLoop=1;jettySize=auto;html=1;entryX=0;entryY=0.5;entryDx=0;entryDy=0;" edge="1" parent="1" source="pxDQ8JFiSgeHR5NtUmY3-27" target="pxDQ8JFiSgeHR5NtUmY3-28">
          <mxGeometry relative="1" as="geometry">
            <Array as="points">
              <mxPoint x="1050" y="500" />
              <mxPoint x="1050" y="428" />
            </Array>
          </mxGeometry>
        </mxCell>
        <mxCell id="pxDQ8JFiSgeHR5NtUmY3-25" value="north、middle 沒有下降" style="edgeLabel;html=1;align=center;verticalAlign=middle;resizable=0;points=[];" vertex="1" connectable="0" parent="pxDQ8JFiSgeHR5NtUmY3-24">
          <mxGeometry x="0.0759" y="1" relative="1" as="geometry">
            <mxPoint y="10" as="offset" />
          </mxGeometry>
        </mxCell>
        <mxCell id="pxDQ8JFiSgeHR5NtUmY3-26" style="edgeStyle=orthogonalEdgeStyle;rounded=0;orthogonalLoop=1;jettySize=auto;html=1;entryX=0;entryY=0.5;entryDx=0;entryDy=0;" edge="1" parent="1" source="pxDQ8JFiSgeHR5NtUmY3-27" target="pxDQ8JFiSgeHR5NtUmY3-31">
          <mxGeometry relative="1" as="geometry">
            <Array as="points">
              <mxPoint x="1050" y="500" />
              <mxPoint x="1050" y="558" />
            </Array>
          </mxGeometry>
        </mxCell>
        <mxCell id="pxDQ8JFiSgeHR5NtUmY3-27" value="判斷接收結果" style="rounded=1;arcSize=40;strokeWidth=2" vertex="1" parent="1">
          <mxGeometry x="874" y="473" width="126" height="54" as="geometry" />
        </mxCell>
        <mxCell id="pxDQ8JFiSgeHR5NtUmY3-28" value="Run north、middle&#xa;下降" style="rounded=1;arcSize=40;strokeWidth=2;fontSize=14;" vertex="1" parent="1">
          <mxGeometry x="1120" y="401" width="126" height="54" as="geometry" />
        </mxCell>
        <mxCell id="pxDQ8JFiSgeHR5NtUmY3-30" value="執行完成" style="curved=1;startArrow=none;endArrow=block;exitX=1;exitY=0.5;entryX=0;entryY=0.5;" edge="1" parent="1" source="pxDQ8JFiSgeHR5NtUmY3-23" target="pxDQ8JFiSgeHR5NtUmY3-27">
          <mxGeometry relative="1" as="geometry">
            <Array as="points" />
          </mxGeometry>
        </mxCell>
        <mxCell id="pxDQ8JFiSgeHR5NtUmY3-31" value="End" style="rounded=1;arcSize=40;strokeWidth=2;fontSize=14;" vertex="1" parent="1">
          <mxGeometry x="1120" y="531" width="126" height="54" as="geometry" />
        </mxCell>
        <mxCell id="pxDQ8JFiSgeHR5NtUmY3-32" value="north、middle 已下降" style="edgeLabel;html=1;align=center;verticalAlign=middle;resizable=0;points=[];" vertex="1" connectable="0" parent="1">
          <mxGeometry x="1050" y="531" as="geometry" />
        </mxCell>
        <mxCell id="pxDQ8JFiSgeHR5NtUmY3-37" value="Run middle motor&#xa;升起" style="rounded=1;arcSize=40;strokeWidth=2" vertex="1" parent="1">
          <mxGeometry x="646" y="682" width="114" height="54" as="geometry" />
        </mxCell>
        <mxCell id="pxDQ8JFiSgeHR5NtUmY3-38" style="edgeStyle=orthogonalEdgeStyle;rounded=0;orthogonalLoop=1;jettySize=auto;html=1;entryX=0;entryY=0.5;entryDx=0;entryDy=0;" edge="1" parent="1" source="pxDQ8JFiSgeHR5NtUmY3-41" target="pxDQ8JFiSgeHR5NtUmY3-42">
          <mxGeometry relative="1" as="geometry">
            <Array as="points">
              <mxPoint x="1050" y="709" />
              <mxPoint x="1050" y="637" />
            </Array>
          </mxGeometry>
        </mxCell>
        <mxCell id="pxDQ8JFiSgeHR5NtUmY3-39" value="north、south 沒有下降" style="edgeLabel;html=1;align=center;verticalAlign=middle;resizable=0;points=[];" vertex="1" connectable="0" parent="pxDQ8JFiSgeHR5NtUmY3-38">
          <mxGeometry x="0.0759" y="1" relative="1" as="geometry">
            <mxPoint y="10" as="offset" />
          </mxGeometry>
        </mxCell>
        <mxCell id="pxDQ8JFiSgeHR5NtUmY3-40" style="edgeStyle=orthogonalEdgeStyle;rounded=0;orthogonalLoop=1;jettySize=auto;html=1;entryX=0;entryY=0.5;entryDx=0;entryDy=0;" edge="1" parent="1" source="pxDQ8JFiSgeHR5NtUmY3-41" target="pxDQ8JFiSgeHR5NtUmY3-45">
          <mxGeometry relative="1" as="geometry">
            <Array as="points">
              <mxPoint x="1050" y="709" />
              <mxPoint x="1050" y="767" />
            </Array>
          </mxGeometry>
        </mxCell>
        <mxCell id="pxDQ8JFiSgeHR5NtUmY3-41" value="判斷接收結果" style="rounded=1;arcSize=40;strokeWidth=2" vertex="1" parent="1">
          <mxGeometry x="874" y="682" width="126" height="54" as="geometry" />
        </mxCell>
        <mxCell id="pxDQ8JFiSgeHR5NtUmY3-42" value="Run north、south&#xa;下降" style="rounded=1;arcSize=40;strokeWidth=2;fontSize=14;" vertex="1" parent="1">
          <mxGeometry x="1120" y="610" width="126" height="54" as="geometry" />
        </mxCell>
        <mxCell id="pxDQ8JFiSgeHR5NtUmY3-44" value="執行完成" style="curved=1;startArrow=none;endArrow=block;exitX=1;exitY=0.5;entryX=0;entryY=0.5;" edge="1" parent="1" source="pxDQ8JFiSgeHR5NtUmY3-37" target="pxDQ8JFiSgeHR5NtUmY3-41">
          <mxGeometry relative="1" as="geometry">
            <Array as="points" />
          </mxGeometry>
        </mxCell>
        <mxCell id="pxDQ8JFiSgeHR5NtUmY3-45" value="End" style="rounded=1;arcSize=40;strokeWidth=2;fontSize=14;" vertex="1" parent="1">
          <mxGeometry x="1120" y="740" width="126" height="54" as="geometry" />
        </mxCell>
        <mxCell id="pxDQ8JFiSgeHR5NtUmY3-46" value="north、south 已下降" style="edgeLabel;html=1;align=center;verticalAlign=middle;resizable=0;points=[];" vertex="1" connectable="0" parent="1">
          <mxGeometry x="1050" y="740" as="geometry" />
        </mxCell>
      </root>
    </mxGraphModel>
  </diagram>
</mxfile>
